<svg xmlns="http://www.w3.org/2000/svg" viewBox="0 0 18 17" width="18" height="17">
	<defs>
		<clipPath clipPathUnits="userSpaceOnUse" id="cp1">
			<path d="M-41 -216L499 -216L499 168L-41 168Z" />
		</clipPath>
	</defs>
	<style>
		<!-- tspan { white-space:pre }
		.shp0 { fill: #000000 } 
		.shp1 { fill: #82cdbf;stroke: #82cdbf;stroke-width: 0.338 } 
		.shp2 { fill: #82cdbf }  -->

	 tspan { white-space:pre }
		.shp0 { fill: #000000 } 
		.shp1 { fill: grey;stroke: grey;stroke-width: 0.338 } 
		.shp2 { fill: grey } 

	</style>
	<g id="Customer Page (Page 2)" clip-path="url(#cp1)">
		<g id="分组 3">
			<g id="menu-schedule">
				<path id="Fill 1" fill-rule="evenodd" class="shp0" d="M2.16 3.2L4.68 3.2C4.68 3.35 4.69 3.49 4.68 3.64C4.68 3.67 4.64 3.71 4.61 3.74C4.41 3.91 4.34 4.14 4.45 4.37C4.55 4.59 4.77 4.71 5.02 4.67C5.25 4.64 5.44 4.45 5.47 4.21C5.49 4.04 5.43 3.88 5.3 3.78C5.2 3.7 5.17 3.61 5.18 3.49C5.19 3.4 5.18 3.31 5.18 3.21L6.7 3.21C6.7 3.35 6.71 3.49 6.7 3.63C6.69 3.68 6.64 3.72 6.6 3.75C6.42 3.92 6.36 4.17 6.48 4.39C6.59 4.61 6.84 4.72 7.08 4.66C7.31 4.61 7.48 4.4 7.49 4.15C7.49 3.99 7.43 3.85 7.3 3.76C7.22 3.7 7.2 3.64 7.2 3.55C7.21 3.44 7.21 3.33 7.21 3.21L8.71 3.21C8.71 3.35 8.72 3.5 8.71 3.64C8.71 3.68 8.65 3.72 8.62 3.75C8.39 3.95 8.38 4.29 8.58 4.51C8.79 4.73 9.14 4.73 9.35 4.52C9.57 4.3 9.56 3.95 9.33 3.77C9.24 3.69 9.21 3.62 9.22 3.52C9.22 3.42 9.22 3.32 9.22 3.2L10.74 3.2C10.74 3.35 10.74 3.5 10.73 3.64C10.73 3.67 10.69 3.71 10.66 3.74C10.46 3.91 10.4 4.14 10.5 4.37C10.6 4.58 10.82 4.71 11.06 4.67C11.3 4.64 11.49 4.46 11.52 4.21C11.55 4.03 11.48 3.87 11.34 3.77C11.25 3.7 11.23 3.62 11.24 3.52C11.24 3.42 11.24 3.32 11.24 3.19C11.36 3.19 11.47 3.19 11.58 3.19C11.92 3.19 12.27 3.2 12.61 3.19C12.72 3.19 12.77 3.22 12.75 3.33C12.75 3.39 12.75 3.45 12.75 3.51C12.76 3.62 12.73 3.7 12.64 3.78C12.42 3.97 12.42 4.3 12.62 4.51C12.82 4.72 13.15 4.74 13.37 4.54C13.58 4.34 13.61 4 13.4 3.81C13.27 3.69 13.25 3.57 13.26 3.42C13.26 3.35 13.26 3.28 13.26 3.2L15.79 3.2L15.79 5.58L2.16 5.58L2.16 3.2ZM2.16 6.09L15.8 6.09L15.8 14.88L2.16 14.88L2.16 6.09ZM11.24 2.52C11.24 2.27 11.24 2.03 11.24 1.78C11.24 1.61 11.14 1.51 11 1.5C10.85 1.5 10.74 1.6 10.74 1.78C10.74 2 10.74 2.22 10.74 2.44L10.74 2.69L9.22 2.69C9.22 2.63 9.22 2.57 9.22 2.52C9.22 2.26 9.23 2 9.21 1.75C9.21 1.67 9.14 1.57 9.07 1.53C9.01 1.5 8.88 1.51 8.83 1.56C8.77 1.62 8.73 1.73 8.72 1.82C8.71 2.06 8.72 2.3 8.72 2.54C8.72 2.59 8.71 2.64 8.71 2.69L7.21 2.69L7.21 2.52C7.21 2.28 7.21 2.04 7.2 1.8C7.2 1.68 7.17 1.57 7.04 1.52C6.87 1.45 6.71 1.57 6.7 1.77C6.7 2.03 6.7 2.3 6.7 2.56C6.71 2.67 6.68 2.7 6.56 2.7C6.3 2.69 6.04 2.7 5.77 2.7L5.18 2.7L5.18 2.53C5.18 2.27 5.19 2.02 5.18 1.77C5.18 1.61 5.08 1.51 4.94 1.5C4.8 1.5 4.7 1.6 4.68 1.76C4.68 1.83 4.68 1.9 4.68 1.96C4.68 2.21 4.68 2.45 4.68 2.7L4.47 2.7C3.66 2.7 2.84 2.7 2.03 2.7C1.73 2.7 1.66 2.77 1.66 3.07C1.66 4.06 1.66 5.04 1.66 6.03C1.66 8.76 1.65 11.49 1.65 14.22C1.65 14.51 1.65 14.79 1.66 15.08C1.66 15.29 1.76 15.38 1.96 15.39C2 15.39 2.04 15.39 2.08 15.39C6.69 15.39 11.3 15.39 15.91 15.39C16.24 15.39 16.31 15.32 16.31 15C16.31 11.02 16.31 7.05 16.31 3.07C16.31 2.77 16.24 2.7 15.94 2.7C15.11 2.7 14.28 2.7 13.44 2.7C13.39 2.7 13.33 2.69 13.26 2.69C13.26 2.51 13.26 2.35 13.26 2.2C13.26 2.05 13.26 1.9 13.26 1.76C13.24 1.6 13.14 1.5 13.01 1.5C12.87 1.5 12.77 1.6 12.76 1.76C12.75 1.87 12.75 1.98 12.75 2.09C12.75 2.29 12.75 2.49 12.75 2.69L11.24 2.69L11.24 2.52Z" />
				<path id="Stroke 3" fill-rule="evenodd" class="shp1" d="M2.16 3.2L4.68 3.2C4.68 3.35 4.69 3.49 4.68 3.64C4.68 3.67 4.64 3.71 4.61 3.74C4.41 3.91 4.34 4.14 4.45 4.37C4.55 4.59 4.77 4.71 5.02 4.67C5.25 4.64 5.44 4.45 5.47 4.21C5.49 4.04 5.43 3.88 5.3 3.78C5.2 3.7 5.17 3.61 5.18 3.49C5.19 3.4 5.18 3.31 5.18 3.21L6.7 3.21C6.7 3.35 6.71 3.49 6.7 3.63C6.69 3.68 6.64 3.72 6.6 3.75C6.42 3.92 6.36 4.17 6.48 4.39C6.59 4.61 6.84 4.72 7.08 4.66C7.31 4.61 7.48 4.4 7.49 4.15C7.49 3.99 7.43 3.85 7.3 3.76C7.22 3.7 7.2 3.64 7.2 3.55C7.21 3.44 7.21 3.33 7.21 3.21L8.71 3.21C8.71 3.35 8.72 3.5 8.71 3.64C8.71 3.68 8.65 3.72 8.62 3.75C8.39 3.95 8.38 4.29 8.58 4.51C8.79 4.73 9.14 4.73 9.35 4.52C9.57 4.3 9.56 3.95 9.33 3.77C9.24 3.69 9.21 3.62 9.22 3.52C9.22 3.42 9.22 3.32 9.22 3.2L10.74 3.2C10.74 3.35 10.74 3.5 10.73 3.64C10.73 3.67 10.69 3.71 10.66 3.74C10.46 3.91 10.4 4.14 10.5 4.37C10.6 4.58 10.82 4.71 11.06 4.67C11.3 4.64 11.49 4.46 11.52 4.21C11.55 4.03 11.48 3.87 11.34 3.77C11.25 3.7 11.23 3.62 11.24 3.52C11.24 3.42 11.24 3.32 11.24 3.19C11.36 3.19 11.47 3.19 11.58 3.19C11.92 3.19 12.27 3.2 12.61 3.19C12.72 3.19 12.77 3.22 12.75 3.33C12.75 3.39 12.75 3.45 12.75 3.51C12.76 3.62 12.73 3.7 12.64 3.78C12.42 3.97 12.42 4.3 12.62 4.51C12.82 4.72 13.15 4.74 13.37 4.54C13.58 4.34 13.61 4 13.4 3.81C13.27 3.69 13.25 3.57 13.26 3.42C13.26 3.35 13.26 3.28 13.26 3.2L15.79 3.2L15.79 5.58L2.16 5.58L2.16 3.2ZM2.16 6.09L15.8 6.09L15.8 14.88L2.16 14.88L2.16 6.09ZM11.24 2.52C11.24 2.27 11.24 2.03 11.24 1.78C11.24 1.61 11.14 1.51 11 1.5C10.85 1.5 10.74 1.6 10.74 1.78C10.74 2 10.74 2.22 10.74 2.44L10.74 2.69L9.22 2.69C9.22 2.63 9.22 2.57 9.22 2.52C9.22 2.26 9.23 2 9.21 1.75C9.21 1.67 9.14 1.57 9.07 1.53C9.01 1.5 8.88 1.51 8.83 1.56C8.77 1.62 8.73 1.73 8.72 1.82C8.71 2.06 8.72 2.3 8.72 2.54C8.72 2.59 8.71 2.64 8.71 2.69L7.21 2.69L7.21 2.52C7.21 2.28 7.21 2.04 7.2 1.8C7.2 1.68 7.17 1.57 7.04 1.52C6.87 1.45 6.71 1.57 6.7 1.77C6.7 2.03 6.7 2.3 6.7 2.56C6.71 2.67 6.68 2.7 6.56 2.7C6.3 2.69 6.04 2.7 5.77 2.7L5.18 2.7L5.18 2.53C5.18 2.27 5.19 2.02 5.18 1.77C5.18 1.61 5.08 1.51 4.94 1.5C4.8 1.5 4.7 1.6 4.68 1.76C4.68 1.83 4.68 1.9 4.68 1.96C4.68 2.21 4.68 2.45 4.68 2.7L4.47 2.7C3.66 2.7 2.84 2.7 2.03 2.7C1.73 2.7 1.66 2.77 1.66 3.07C1.66 4.06 1.66 5.04 1.66 6.03C1.66 8.76 1.65 11.49 1.65 14.22C1.65 14.51 1.65 14.79 1.66 15.08C1.66 15.29 1.76 15.38 1.96 15.39C2 15.39 2.04 15.39 2.08 15.39C6.69 15.39 11.3 15.39 15.91 15.39C16.24 15.39 16.31 15.32 16.31 15C16.31 11.02 16.31 7.05 16.31 3.07C16.31 2.77 16.24 2.7 15.94 2.7C15.11 2.7 14.28 2.7 13.44 2.7C13.39 2.7 13.33 2.69 13.26 2.69C13.26 2.51 13.26 2.35 13.26 2.2C13.26 2.05 13.26 1.9 13.26 1.76C13.24 1.6 13.14 1.5 13.01 1.5C12.87 1.5 12.77 1.6 12.76 1.76C12.75 1.87 12.75 1.98 12.75 2.09C12.75 2.29 12.75 2.49 12.75 2.69L11.24 2.69L11.24 2.52Z" />
				<path id="Fill 19" class="shp2" d="M3.84 8.6C3.65 8.56 3.56 8.31 3.55 7.95C3.53 7.61 3.65 7.31 3.83 7.28C4.09 7.25 4.36 7.25 4.62 7.28C4.8 7.31 4.91 7.6 4.91 7.95C4.91 8.3 4.8 8.56 4.61 8.6C4.48 8.63 4.36 8.6 4.23 8.6C4.1 8.6 3.97 8.63 3.84 8.6Z" />
				<path id="Fill 19 Copy 4" class="shp2" d="M6.91 8.6C6.72 8.56 6.63 8.31 6.61 7.95C6.6 7.61 6.72 7.31 6.9 7.28C7.16 7.25 7.43 7.25 7.69 7.28C7.87 7.31 7.98 7.6 7.98 7.95C7.97 8.3 7.86 8.56 7.68 8.6C7.55 8.63 7.42 8.6 7.29 8.6C7.17 8.6 7.04 8.63 6.91 8.6Z" />
				<path id="Fill 19 Copy 8" class="shp2" d="M9.98 8.6C9.79 8.56 9.69 8.31 9.68 7.95C9.67 7.61 9.79 7.31 9.97 7.28C10.23 7.25 10.5 7.25 10.76 7.28C10.94 7.31 11.05 7.6 11.05 7.95C11.04 8.3 10.93 8.56 10.75 8.6C10.62 8.63 10.49 8.6 10.36 8.6C10.23 8.6 10.11 8.63 9.98 8.6Z" />
				<path id="Fill 19 Copy 12" class="shp2" d="M13.05 8.6C12.86 8.56 12.76 8.31 12.75 7.95C12.74 7.61 12.86 7.31 13.04 7.28C13.3 7.25 13.56 7.25 13.83 7.28C14.01 7.31 14.12 7.6 14.11 7.95C14.11 8.3 14 8.56 13.82 8.6C13.69 8.63 13.56 8.6 13.43 8.6C13.3 8.6 13.17 8.63 13.05 8.6Z" />
				<path id="Fill 19 Copy" class="shp2" d="M4.23 10.98C4.1 10.98 3.97 11 3.84 10.97C3.65 10.93 3.56 10.68 3.55 10.32C3.53 9.98 3.65 9.68 3.83 9.65C4.09 9.62 4.36 9.62 4.62 9.66C4.8 9.68 4.91 9.97 4.91 10.32C4.91 10.67 4.8 10.93 4.61 10.97C4.48 11 4.36 10.97 4.23 10.98" />
				<path id="Fill 19 Copy 5" class="shp2" d="M7.29 10.98C7.17 10.98 7.04 11 6.91 10.97C6.72 10.93 6.63 10.68 6.61 10.32C6.6 9.98 6.72 9.68 6.9 9.65C7.16 9.62 7.43 9.62 7.69 9.66C7.87 9.68 7.98 9.97 7.98 10.32C7.97 10.67 7.86 10.93 7.68 10.97C7.55 11 7.42 10.97 7.29 10.98" />
				<path id="Fill 19 Copy 9" class="shp2" d="M10.36 10.98C10.23 10.98 10.11 11 9.98 10.97C9.79 10.93 9.69 10.68 9.68 10.32C9.67 9.98 9.79 9.68 9.97 9.65C10.23 9.62 10.5 9.62 10.76 9.66C10.94 9.68 11.05 9.97 11.05 10.32C11.04 10.67 10.93 10.93 10.75 10.97C10.62 11 10.49 10.97 10.36 10.98" />
				<path id="Fill 19 Copy 13" class="shp2" d="M13.43 10.98C13.3 10.98 13.17 11 13.05 10.97C12.86 10.93 12.76 10.68 12.75 10.32C12.74 9.98 12.86 9.68 13.04 9.65C13.3 9.62 13.56 9.62 13.83 9.66C14.01 9.68 14.12 9.97 14.11 10.32C14.11 10.67 14 10.93 13.82 10.97C13.69 11 13.56 10.97 13.43 10.98" />
				<path id="Fill 19 Copy 2" class="shp2" d="M4.23 13.35C4.1 13.35 3.97 13.37 3.84 13.34C3.65 13.3 3.56 13.05 3.55 12.69C3.53 12.35 3.65 12.05 3.83 12.02C4.09 11.99 4.36 11.99 4.62 12.03C4.8 12.05 4.91 12.34 4.91 12.69C4.91 13.04 4.8 13.3 4.61 13.34C4.48 13.37 4.36 13.35 4.23 13.35" />
				<path id="Fill 19 Copy 6" class="shp2" d="M7.29 13.35C7.17 13.35 7.04 13.37 6.91 13.34C6.72 13.3 6.63 13.05 6.61 12.69C6.6 12.35 6.72 12.05 6.9 12.02C7.16 11.99 7.43 11.99 7.69 12.03C7.87 12.05 7.98 12.34 7.98 12.69C7.97 13.04 7.86 13.3 7.68 13.34C7.55 13.37 7.42 13.35 7.29 13.35" />
				<path id="Fill 19 Copy 10" class="shp2" d="M10.36 13.35C10.23 13.35 10.11 13.37 9.98 13.34C9.79 13.3 9.69 13.05 9.68 12.69C9.67 12.35 9.79 12.05 9.97 12.02C10.23 11.99 10.5 11.99 10.76 12.03C10.94 12.05 11.05 12.34 11.05 12.69C11.04 13.04 10.93 13.3 10.75 13.34C10.62 13.37 10.49 13.35 10.36 13.35" />
				<path id="Fill 19 Copy 14" class="shp2" d="M13.43 13.35C13.3 13.35 13.17 13.37 13.05 13.34C12.86 13.3 12.76 13.05 12.75 12.69C12.74 12.35 12.86 12.05 13.04 12.02C13.3 11.99 13.56 11.99 13.83 12.03C14.01 12.05 14.12 12.34 14.11 12.69C14.11 13.04 14 13.3 13.82 13.34C13.69 13.37 13.56 13.35 13.43 13.35" />
			</g>
		</g>
	</g>
</svg>