<?xml version="1.0" encoding="utf-8"?>
<svg width="34px" height="32px" viewBox="0 0 34 32" version="1.1" xmlns:xlink="http://www.w3.org/1999/xlink" xmlns="http://www.w3.org/2000/svg">
  <desc>Created with Lunacy</desc>
  <path d="M2.57812 26.5547L2.57812 10.3126L30.4219 10.3126L30.4219 12.504L33 12.504L33 3.86718C33 1.73479 31.2652 0 29.1328 0L3.86718 0C1.73485 0 0 1.73485 0 3.86718L0 26.5547C0 28.687 1.73485 30.4219 3.86718 30.4219L16.8867 30.4219L16.8867 27.8438L3.86718 27.8438C3.15643 27.8438 2.57812 27.2655 2.57812 26.5547ZM3.50877 2.33918C2.86383 2.33918 2.33918 2.86383 2.33918 3.50877L2.33918 7.01754L27.6023 7.01754L27.6023 3.50877C27.6023 2.86389 27.0777 2.33918 26.4328 2.33918L3.50877 2.33918ZM6.43277 4.67836C6.43277 5.32431 5.90913 5.84795 5.26318 5.84795C4.61724 5.84795 4.09359 5.32431 4.09359 4.67836C4.09359 4.03241 4.61724 3.50877 5.26318 3.50877C5.90913 3.50877 6.43277 4.03241 6.43277 4.67836ZM10.5263 4.67836C10.5263 5.32431 10.0027 5.84795 9.35672 5.84795C8.71077 5.84795 8.18713 5.32431 8.18713 4.67836C8.18713 4.03241 8.71077 3.50877 9.35672 3.50877C10.0027 3.50877 10.5263 4.03241 10.5263 4.67836ZM28.04 14.0849C26.6304 13.8315 25.2889 13.0011 24.7776 12.6558C24.2442 12.2957 23.6235 12.1052 22.9825 12.1052C22.3415 12.1052 21.7208 12.2957 21.1875 12.6558C20.6762 13.0011 19.3346 13.8315 17.9249 14.0849C16.7892 14.2892 15.9649 15.2742 15.9649 16.4272L15.9649 20.0761C15.9649 25.5705 22.2387 28.4341 22.5057 28.5533L22.9825 28.7662L23.4592 28.5533C23.7262 28.4342 30 25.5705 30 20.0762L30 16.4273C30 15.2742 29.1757 14.2892 28.04 14.0849ZM22.9825 26.1737C24.2599 25.477 27.6608 23.3173 27.6608 20.0762L27.6608 16.4273C27.6608 16.4074 27.6465 16.3909 27.6261 16.3872C25.8444 16.0669 24.2565 15.1265 23.4686 14.5945C23.3232 14.4964 23.1552 14.4445 22.9825 14.4445C22.8097 14.4445 22.6417 14.4963 22.4964 14.5944C21.7085 15.1264 20.1206 16.0669 18.3388 16.3872C18.3185 16.3909 18.3041 16.4074 18.3041 16.4273L18.3041 20.0762C18.3041 23.3166 21.7034 25.476 22.9825 26.1737Z" transform="translate(0.5 0.5)" id="browser-3" fill-rule="evenodd" stroke="none" />
</svg>