<?xml version="1.0" encoding="UTF-8"?>
<svg width="33px" height="33px" viewBox="0 0 33 33" version="1.1" xmlns="http://www.w3.org/2000/svg" xmlns:xlink="http://www.w3.org/1999/xlink">
    <title>keypad</title>
    <g id="Page-1" stroke="none" stroke-width="1" fill="none" fill-rule="evenodd">
        <g id="Inspection" transform="translate(-39.000000, -478.000000)" fill="#FFFFFF" fill-rule="nonzero">
            <path d="M72,494.5 C72,492.012238 69.976043,489.988281 67.4882812,489.988281 C65.0005195,489.988281 62.9765625,492.012238 62.9765625,494.5 C62.9765625,496.539877 64.337748,498.266963 66.1992188,498.823064 L66.1992188,502.165152 C64.7464453,502.59918 63.5991797,503.746445 63.1652168,505.199154 L59.8230645,505.199154 C59.3891016,503.746381 58.2417715,502.599115 56.7890625,502.165152 L56.7890625,498.823064 C58.6505332,498.266963 60.0117188,496.539877 60.0117188,494.5 C60.0117188,492.012238 57.9877617,489.988281 55.5,489.988281 C54.7239844,489.988281 53.9932148,490.185314 53.3548066,490.53175 L47.4799043,484.656848 C47.8264043,484.018504 48.0234375,483.287734 48.0234375,482.511719 C48.0234375,480.023957 45.9994805,478 43.5117188,478 C41.023957,478 39,480.023957 39,482.511719 C39,484.99948 41.023957,487.023438 43.5117188,487.023438 C44.2877344,487.023438 45.0185039,486.826404 45.6569121,486.479969 L51.5318145,492.354871 C51.1853145,492.993215 50.9882812,493.723984 50.9882812,494.5 C50.9882812,496.539877 52.3494668,498.266963 54.2109375,498.823064 L54.2109375,502.165152 C52.3494668,502.721254 50.9882812,504.44834 50.9882812,506.488217 C50.9882812,508.975979 53.0122383,510.999936 55.5,510.999936 C57.5398125,510.999936 59.2669629,509.63875 59.8230645,507.777279 L63.1652168,507.777279 C63.7213184,509.63875 65.4484688,510.999936 67.4882812,510.999936 C69.976043,510.999936 72,508.975979 72,506.488217 C72,504.44834 70.6388145,502.721254 68.7773438,502.165152 L68.7773438,498.823064 C70.6388145,498.266963 72,496.539877 72,494.5 Z M43.5117188,484.445312 C42.4455352,484.445312 41.578125,483.577902 41.578125,482.511719 C41.578125,481.445535 42.4455352,480.578125 43.5117188,480.578125 C44.5779023,480.578125 45.4453125,481.445535 45.4453125,482.511719 C45.4453125,483.577902 44.5779023,484.445312 43.5117188,484.445312 Z M53.5664062,494.5 C53.5664062,493.433816 54.4338164,492.566406 55.5,492.566406 C56.5661836,492.566406 57.4335938,493.433816 57.4335938,494.5 C57.4335938,495.566184 56.5661836,496.433594 55.5,496.433594 C54.4338164,496.433594 53.5664062,495.566184 53.5664062,494.5 Z M55.5,508.421875 C54.4338164,508.421875 53.5664062,507.554465 53.5664062,506.488281 C53.5664062,505.422098 54.4338164,504.554688 55.5,504.554688 C56.5661836,504.554688 57.4335938,505.422098 57.4335938,506.488281 C57.4335938,507.554465 56.5661836,508.421875 55.5,508.421875 Z M69.421875,506.488281 C69.421875,507.554465 68.5544648,508.421875 67.4882812,508.421875 C66.4220977,508.421875 65.5546875,507.554465 65.5546875,506.488281 C65.5546875,505.422098 66.4220977,504.554688 67.4882812,504.554688 C68.5544648,504.554688 69.421875,505.422098 69.421875,506.488281 Z M43.5117188,501.976562 C45.9994805,501.976562 48.0234375,504.00052 48.0234375,506.488281 C48.0234375,508.976043 45.9994805,511 43.5117188,511 C41.023957,511 39,508.976043 39,506.488281 C39,504.00052 41.023957,501.976562 43.5117188,501.976562 Z M43.5117188,504.554688 C42.4455352,504.554688 41.578125,505.422098 41.578125,506.488281 C41.578125,507.554465 42.4455352,508.421875 43.5117188,508.421875 C44.5779023,508.421875 45.4453125,507.554465 45.4453125,506.488281 C45.4453125,505.422098 44.5779023,504.554688 43.5117188,504.554688 Z M43.5117188,489.988281 C45.9994805,489.988281 48.0234375,492.012238 48.0234375,494.5 C48.0234375,496.987762 45.9994805,499.011719 43.5117188,499.011719 C41.023957,499.011719 39,496.987762 39,494.5 C39,492.012238 41.023957,489.988281 43.5117188,489.988281 Z M67.4882812,492.566406 C68.5544648,492.566406 69.421875,493.433816 69.421875,494.5 C69.421875,495.566184 68.5544648,496.433594 67.4882812,496.433594 C66.4220977,496.433594 65.5546875,495.566184 65.5546875,494.5 C65.5546875,493.433816 66.4220977,492.566406 67.4882812,492.566406 Z M43.5117188,492.566406 C42.4455352,492.566406 41.578125,493.433816 41.578125,494.5 C41.578125,495.566184 42.4455352,496.433594 43.5117188,496.433594 C44.5779023,496.433594 45.4453125,495.566184 45.4453125,494.5 C45.4453125,493.433816 44.5779023,492.566406 43.5117188,492.566406 Z M67.4882812,478 C69.976043,478 72,480.023957 72,482.511719 C72,484.99948 69.976043,487.023438 67.4882812,487.023438 C65.0005195,487.023438 62.9765625,484.99948 62.9765625,482.511719 C62.9765625,480.023957 65.0005195,478 67.4882812,478 Z M55.5,478 C57.9877617,478 60.0117188,480.023957 60.0117188,482.511719 C60.0117188,484.99948 57.9877617,487.023438 55.5,487.023438 C53.0122383,487.023438 50.9882812,484.99948 50.9882812,482.511719 C50.9882812,480.023957 53.0122383,478 55.5,478 Z M67.4882812,480.578125 C66.4220977,480.578125 65.5546875,481.445535 65.5546875,482.511719 C65.5546875,483.577902 66.4220977,484.445312 67.4882812,484.445312 C68.5544648,484.445312 69.421875,483.577902 69.421875,482.511719 C69.421875,481.445535 68.5544648,480.578125 67.4882812,480.578125 Z M55.5,480.578125 C54.4338164,480.578125 53.5664062,481.445535 53.5664062,482.511719 C53.5664062,483.577902 54.4338164,484.445312 55.5,484.445312 C56.5661836,484.445312 57.4335938,483.577902 57.4335938,482.511719 C57.4335938,481.445535 56.5661836,480.578125 55.5,480.578125 Z" id="keypad"></path>
        </g>
    </g>
</svg>