<svg xmlns="http://www.w3.org/2000/svg" viewBox="0 0 17 17" width="17" height="17">
	<defs>
		<clipPath clipPathUnits="userSpaceOnUse" id="cp1">
			<path d="M-18 -160L522 -160L522 224L-18 224Z" />
		</clipPath>
		<clipPath clipPathUnits="userSpaceOnUse" id="cp2">
			<path d="M0.17 0.75L16.29 0.75L16.29 16.12L0.17 16.12L0.17 0.75Z" />
		</clipPath>
		<clipPath clipPathUnits="userSpaceOnUse" id="cp3">
			<path d="M0.17 0.75L16.29 0.75L16.29 16.12L0.17 16.12L0.17 0.75Z" />
		</clipPath>
	</defs>
	<style>
		tspan { white-space:pre }
				<!-- tspan { white-space:pre }
		.shp0 { fill: grey }  -->

	</style>
	<g id="Blank Page Copy" clip-path="url(#cp1)">
		<g id="Group 3 Copy 9">
			<g id="Mask by Clip 2" clip-path="url(#cp2)">
				<g id="Mask by Clip 2" clip-path="url(#cp3)">
					<path id="Fill 1" fill-rule="evenodd" class="shp0" d="M12 11.23C12.22 11.32 12.42 11.39 12.61 11.48C12.66 11.5 12.7 11.59 12.7 11.65C12.7 12.23 12.7 12.8 12.7 13.39L12 13.39L12 11.23ZM3.67 13.4L3.67 12.04C3.67 11.46 3.75 11.37 4.38 11.27L4.38 13.4L3.67 13.4ZM6.04 10.13C7.37 11.43 9.2 11.29 10.4 10.2C10.35 10.34 10.34 10.53 10.23 10.63C9.99 10.86 9.73 11.13 9.42 11.24C8.61 11.55 7.77 11.53 6.96 11.22C6.46 11.04 6.1 10.71 6.04 10.13ZM11.43 4.85C11.5 5.14 11.43 5.26 11.11 5.25C9.17 5.24 7.23 5.25 5.29 5.25C5.06 5.25 4.93 5.18 5 4.96C5.03 4.89 5.2 4.82 5.31 4.82C6.88 4.81 8.44 4.81 10.01 4.81C10.37 4.81 10.72 4.81 11.07 4.81C11.19 4.81 11.31 4.84 11.43 4.85ZM1.19 15.34C1.05 14.24 1.96 12.5 2.9 12.11L2.9 13.28C2.73 13.29 2.55 13.3 2.33 13.31L2.33 15.34L1.19 15.34ZM13.43 12C14.77 12.75 15.09 14 15.3 15.33L14.13 15.33L14.13 13.31L13.43 13.31L13.43 12ZM7.01 2.94L7.76 2.94L7.76 1.55L8.69 1.55L8.69 2.94L9.39 2.94L9.39 2.14C10.17 2.3 10.94 3.28 10.95 4.1L5.48 4.1C5.55 3.22 6.2 2.39 7.01 2.14L7.01 2.94ZM5.06 13.28C5.06 13 5.06 12.72 5.06 12.44C5.06 12.11 5.07 11.77 5.05 11.44C5.03 11.16 5.13 11 5.43 10.98C6.51 12.25 8.47 12.64 9.98 11.87C10.32 11.7 10.58 11.39 10.88 11.14C10.95 11.08 11.03 11.04 11.11 10.99C11.17 11.08 11.26 11.16 11.27 11.24C11.28 11.91 11.27 12.58 11.27 13.28L5.06 13.28ZM3.38 13.99C6.6 13.99 9.82 13.99 13.04 13.98C13.35 13.98 13.45 14.06 13.43 14.37C13.4 14.72 13.42 15.08 13.42 15.45L3.04 15.45L3.04 13.99L3.38 13.99ZM10.78 5.93C10.93 6.1 11.02 6.19 11.09 6.29C11.14 6.36 11.18 6.45 11.19 6.53C11.26 7.15 11.02 7.67 10.63 8.15C10.5 8.31 10.38 8.49 10.31 8.68C9.92 9.74 9.05 10.36 8 10.25C7.04 10.15 6.5 9.55 6.15 8.73C6.06 8.52 5.94 8.32 5.8 8.14C5.45 7.69 5.19 7.21 5.24 6.63C5.25 6.5 5.37 6.37 5.44 6.24C5.45 6.22 5.48 6.21 5.49 6.2C5.51 5.78 5.84 5.94 6.06 5.94C7.66 5.93 9.26 5.93 10.78 5.93ZM11.69 4.34C11.52 2.98 10.85 2.01 9.61 1.44C9.55 1.41 9.48 1.31 9.47 1.24C9.44 1.01 9.31 0.9 9.09 0.85C8.52 0.72 7.94 0.72 7.37 0.85C7.14 0.9 7 1.02 6.96 1.25C6.94 1.32 6.88 1.41 6.81 1.45C5.58 2.04 4.9 2.99 4.76 4.31C4.16 4.5 4.05 5.41 4.54 5.96C4.27 6.78 4.45 7.53 4.89 8.25C5.22 8.8 5.56 9.35 5.89 9.91C5.11 10.23 4.36 10.55 3.6 10.84C2 11.43 0.92 12.47 0.55 14.13C0.41 14.78 0.3 15.45 0.17 16.12L16.29 16.12C16.12 15.31 16 14.52 15.78 13.76C15.45 12.59 14.72 11.71 13.58 11.18C13.17 10.98 12.76 10.8 12.34 10.63C11.75 10.38 11.16 10.16 10.55 9.91C10.91 9.31 11.26 8.74 11.6 8.17C12.03 7.47 12.15 6.72 11.94 5.94C12.03 5.76 12.11 5.57 12.14 5.38C12.17 5.22 12.14 5.06 12.15 4.9C12.18 4.57 12.05 4.37 11.69 4.34Z" />
				</g>
			</g>
		</g>
	</g>
</svg>