<svg xmlns="http://www.w3.org/2000/svg" viewBox="0 0 15 14" width="15" height="14">
	<defs>
		<clipPath clipPathUnits="userSpaceOnUse" id="cp1">
			<path d="M-30 -266L510 -266L510 118L-30 118Z" />
		</clipPath>
		<clipPath clipPathUnits="userSpaceOnUse" id="cp2">
			<path d="M0.33 0.03L14.22 0.03L14.22 13.89L0.33 13.89L0.33 0.03Z" />
		</clipPath>
	</defs>
	<style>
		<!-- tspan { white-space:pre }
		.shp0 { fill: #82cdbf }  -->

	tspan { white-space:pre }
		.shp0 { fill: grey } 

	</style>
	<g id="Customer Page (Page 2)" clip-path="url(#cp1)">
		<g id="分组 3">
			<g id="menu-setting">
				<g id="Group 3">
					<g id="Mask by Clip 2" clip-path="url(#cp2)">
						<path id="Fill 1" fill-rule="evenodd" class="shp0" d="M8.06 12.51C8.05 13.07 7.96 13.16 7.39 13.11C7.22 13.1 7.05 13.08 6.88 13.08C6.67 13.07 6.58 12.99 6.58 12.78C6.59 12.56 6.59 12.33 6.56 12.11C6.47 11.5 6.1 11.12 5.53 10.93C4.98 10.73 4.5 10.87 4.07 11.24C3.95 11.34 3.84 11.45 3.74 11.56C3.6 11.72 3.46 11.74 3.31 11.58C3.09 11.35 2.86 11.13 2.63 10.91C2.49 10.78 2.51 10.67 2.64 10.55C2.76 10.43 2.88 10.32 2.98 10.2C3.41 9.73 3.51 9.2 3.27 8.62C3.03 8.03 2.57 7.73 1.95 7.69C1.76 7.68 1.56 7.71 1.38 7.67C1.29 7.66 1.16 7.53 1.16 7.45C1.13 7.12 1.15 6.8 1.14 6.47C1.14 6.28 1.26 6.23 1.43 6.22C1.68 6.21 1.94 6.23 2.18 6.18C3.31 5.97 3.77 4.62 3.02 3.76C2.89 3.61 2.75 3.48 2.62 3.35C2.49 3.23 2.5 3.12 2.62 3C2.85 2.78 3.09 2.55 3.31 2.31C3.44 2.18 3.57 2.2 3.69 2.31C3.8 2.42 3.91 2.53 4.02 2.64C4.49 3.09 5.05 3.2 5.65 2.95C6.24 2.71 6.54 2.24 6.58 1.6C6.59 1.44 6.59 1.28 6.59 1.12C6.58 0.94 6.64 0.84 6.84 0.85C7.14 0.86 7.45 0.86 7.76 0.85C7.96 0.84 8.01 0.94 8.01 1.12C8 1.34 8 1.57 8.04 1.79C8.24 2.97 9.56 3.47 10.5 2.72C10.59 2.65 10.68 2.57 10.76 2.48C11.12 2.13 11.12 2.13 11.49 2.49C11.63 2.64 11.77 2.8 11.93 2.93C12.13 3.1 12.12 3.23 11.94 3.42C11.71 3.66 11.46 3.91 11.33 4.21C10.93 5.1 11.63 6.16 12.63 6.22C12.81 6.23 12.99 6.23 13.17 6.22C13.32 6.22 13.41 6.27 13.41 6.44C13.41 6.77 13.41 7.11 13.41 7.44C13.41 7.59 13.34 7.65 13.19 7.65C12.97 7.65 12.74 7.65 12.51 7.68C11.96 7.76 11.57 8.07 11.36 8.59C11.14 9.13 11.19 9.64 11.56 10.1C11.69 10.25 11.83 10.39 11.98 10.52C12.13 10.66 12.14 10.79 11.98 10.94C11.77 11.14 11.55 11.35 11.35 11.57C11.19 11.74 11.06 11.72 10.89 11.56C10.68 11.36 10.46 11.14 10.2 11C9.28 10.52 8.13 11.18 8.06 12.21C8.05 12.31 8.06 12.41 8.06 12.51ZM7.3 0.03C7.13 0.03 6.96 0.03 6.79 0.03C6.2 0.05 5.79 0.46 5.77 1.05C5.77 1.21 5.77 1.37 5.77 1.54C5.76 1.84 5.63 2.07 5.34 2.2C5.05 2.33 4.79 2.26 4.57 2.04C4.45 1.93 4.34 1.81 4.22 1.7C3.79 1.31 3.22 1.3 2.8 1.7C2.53 1.95 2.26 2.21 2 2.48C1.6 2.9 1.6 3.44 1.99 3.87C2.12 4.01 2.26 4.13 2.39 4.27C2.59 4.49 2.62 4.73 2.51 5C2.39 5.27 2.19 5.41 1.89 5.41C1.72 5.41 1.55 5.4 1.38 5.41C0.74 5.44 0.34 5.85 0.33 6.49C0.33 6.81 0.32 7.12 0.33 7.44C0.34 8.07 0.76 8.48 1.39 8.5C1.57 8.5 1.75 8.49 1.93 8.5C2.21 8.52 2.41 8.67 2.51 8.93C2.62 9.18 2.59 9.42 2.4 9.63C2.26 9.77 2.11 9.91 1.98 10.06C1.62 10.45 1.59 10.96 1.95 11.36C2.24 11.69 2.55 12.01 2.89 12.29C3.18 12.53 3.54 12.62 3.88 12.41C4.12 12.27 4.34 12.07 4.55 11.88C4.78 11.68 5.02 11.59 5.32 11.71C5.62 11.84 5.77 12.07 5.77 12.39C5.77 12.56 5.77 12.74 5.77 12.91C5.79 13.45 6.19 13.86 6.74 13.88C7.09 13.89 7.45 13.89 7.8 13.88C8.43 13.87 8.83 13.48 8.86 12.85C8.87 12.67 8.86 12.49 8.87 12.31C8.87 12.01 9.04 11.83 9.3 11.71C9.56 11.6 9.8 11.65 10 11.83C10.14 11.96 10.26 12.09 10.39 12.21C10.85 12.62 11.42 12.62 11.86 12.2C12.12 11.95 12.38 11.69 12.63 11.43C13 11.03 13.02 10.5 12.66 10.08C12.55 9.95 12.42 9.83 12.3 9.71C12.07 9.49 11.97 9.24 12.09 8.93C12.22 8.61 12.47 8.48 12.8 8.47C13 8.46 13.2 8.47 13.39 8.45C13.85 8.41 14.19 8.07 14.21 7.62C14.23 7.18 14.23 6.73 14.21 6.29C14.19 5.88 13.92 5.55 13.51 5.46C13.26 5.41 13.01 5.41 12.75 5.41C12.43 5.41 12.22 5.26 12.1 4.98C11.98 4.69 12.05 4.45 12.26 4.24C12.39 4.11 12.53 3.99 12.65 3.85C13.02 3.43 13.01 2.89 12.62 2.48C12.36 2.21 12.09 1.94 11.81 1.68C11.4 1.3 10.83 1.31 10.41 1.69C10.28 1.81 10.15 1.94 10.02 2.07C9.8 2.27 9.55 2.32 9.27 2.2C8.98 2.07 8.84 1.85 8.83 1.54C8.82 1.35 8.83 1.16 8.82 0.97C8.8 0.45 8.4 0.05 7.88 0.03C7.69 0.03 7.5 0.03 7.3 0.03L7.3 0.03Z" />
					</g>
				</g>
				<path id="Fill 4" fill-rule="evenodd" class="shp0" d="M10.04 6.83C10.04 8.34 8.81 9.57 7.3 9.57C5.78 9.58 4.55 8.35 4.55 6.83C4.55 5.3 5.79 4.08 7.31 4.09C8.83 4.11 10.04 5.33 10.04 6.83ZM7.28 10.39C9.28 10.39 10.85 8.8 10.86 6.8C10.88 4.99 9.33 3.23 7.2 3.27C5.31 3.31 3.73 4.9 3.72 6.83C3.72 8.78 5.33 10.39 7.28 10.39Z" />
			</g>
		</g>
	</g>
</svg>