<?xml version="1.0" encoding="utf-8"?>
<svg width="33px" height="32px" viewBox="0 0 33 32" version="1.1" xmlns:xlink="http://www.w3.org/1999/xlink" xmlns="http://www.w3.org/2000/svg">
  <desc>Created with Lunacy</desc>
  <g id="menu-setting" transform="translate(0.5 0.5)">
    <g id="Group-3">
      <path d="M15.9176 0.00261759C15.785 0.00392671 15.6524 0.00523596 15.5199 0.00523596L15.5199 0.00332537C15.4 0.00332537 15.28 0.00259966 15.1601 0.00187384C14.8968 0.000281372 14.6335 -0.00131161 14.3705 0.00475831C13.0564 0.0348502 12.1432 0.937128 12.1106 2.23681C12.1059 2.42369 12.1067 2.61063 12.1075 2.79758C12.1082 2.96875 12.1089 3.13992 12.1055 3.31104C12.0922 3.99074 11.7898 4.49418 11.1487 4.7705C10.5007 5.04968 9.92909 4.90902 9.43135 4.43065C9.17135 4.18084 8.92054 3.92148 8.65449 3.67812C7.70622 2.81094 6.43065 2.79972 5.49377 3.66737C4.89121 4.2255 4.30245 4.7994 3.73112 5.38858C2.83926 6.30781 2.83466 7.5036 3.70473 8.44266C3.99015 8.75074 4.30705 9.03065 4.59271 9.33873C5.03162 9.81256 5.11175 10.3516 4.8486 10.9408C4.58666 11.5271 4.14436 11.8414 3.48346 11.8366C3.39671 11.8359 3.30993 11.8349 3.22314 11.8338C2.9265 11.83 2.62975 11.8263 2.33402 11.8402C0.912957 11.907 0.0203742 12.8194 0.00584884 14.215C-0.00117175 14.9112 -0.00286638 15.6076 0.00633301 16.3038C0.0244897 17.6864 0.954354 18.6051 2.36767 18.6407C2.53592 18.645 2.70446 18.6431 2.87296 18.6412C3.10815 18.6385 3.34326 18.6358 3.57739 18.65C4.19932 18.688 4.62661 19.0109 4.8624 19.5812C5.09747 20.1491 5.03961 20.6719 4.60748 21.1285C4.30487 21.4481 3.97708 21.7449 3.68149 22.0702C2.88623 22.9443 2.82135 24.052 3.60257 24.9395C4.24774 25.6726 4.95561 26.3633 5.70584 26.9914C6.34157 27.5235 7.13634 27.7034 7.89941 27.2529C8.44072 26.9334 8.922 26.5047 9.39625 26.0875C9.90802 25.6368 10.4443 25.4391 11.1081 25.7163C11.7803 25.997 12.0963 26.5014 12.1038 27.2085C12.1053 27.3537 12.1045 27.4989 12.1037 27.6442C12.1025 27.877 12.1013 28.1099 12.1093 28.3425C12.151 29.5483 13.0392 30.4432 14.2608 30.483C15.0464 30.5088 15.8339 30.5014 16.6199 30.489C18.0253 30.467 18.9135 29.6104 18.9769 28.2233C18.9873 27.9961 18.987 27.7684 18.9867 27.5408C18.9865 27.3704 18.9862 27.2001 18.9905 27.0299C19.0069 26.3757 19.3694 25.9621 19.9552 25.7128C20.536 25.4658 21.0623 25.5704 21.5223 25.9831C21.8205 26.2506 22.0887 26.5506 22.388 26.8168C23.4016 27.7201 24.6629 27.7072 25.6421 26.7784C26.2234 26.227 26.8003 25.6695 27.3537 25.0911C28.1942 24.2125 28.2204 23.042 27.4302 22.1185C27.1838 21.8304 26.9012 21.572 26.6267 21.3084C26.1205 20.8219 25.9029 20.2611 26.1692 19.5817C26.4434 18.8814 27.0087 18.5975 27.7316 18.5674C27.9094 18.56 28.0877 18.5597 28.2659 18.5593C28.5318 18.5588 28.7976 18.5583 29.0614 18.5344C30.0753 18.4425 30.8318 17.6993 30.8739 16.6991C30.9148 15.7263 30.9119 14.7493 30.872 13.7763C30.8345 12.8654 30.2229 12.1399 29.3163 11.9553C28.7709 11.844 28.1969 11.8464 27.6355 11.8426C26.923 11.8373 26.449 11.513 26.1784 10.8844C25.9101 10.2608 26.0638 9.72109 26.5466 9.25562C26.8349 8.97715 27.1322 8.70584 27.3973 8.40708C28.2262 7.47232 28.2131 6.28751 27.3508 5.39144C26.7678 4.78578 26.1687 4.19278 25.5465 3.62677C24.6188 2.78252 23.359 2.80617 22.4342 3.65399C22.1393 3.92482 21.8542 4.20616 21.5598 4.47746C21.0662 4.93242 20.5057 5.0301 19.885 4.76405C19.2459 4.48988 18.9249 3.99909 18.9033 3.31892C18.8974 3.12865 18.8982 2.93813 18.8989 2.74763C18.8999 2.52017 18.9008 2.29274 18.8903 2.06581C18.8375 0.918978 17.9522 0.0515679 16.7904 0.00786303C16.4998 -0.00313172 16.2087 -0.000257386 15.9176 0.00261759ZM17.1908 27.2636C17.1921 27.3328 17.1935 27.4021 17.1935 27.4712C17.177 28.7112 16.9734 28.8927 15.7056 28.7922C15.326 28.7618 14.9461 28.7188 14.5661 28.716C14.1141 28.7124 13.9061 28.534 13.9187 28.068C13.9318 27.5727 13.9369 27.0688 13.8633 26.5809C13.6619 25.2492 12.8421 24.4202 11.5782 23.9803C10.3484 23.5521 9.28005 23.8612 8.32621 24.6717C8.06694 24.8919 7.82364 25.1336 7.59389 25.3834C7.27748 25.7273 6.97826 25.7844 6.6265 25.4259C6.13579 24.9256 5.63297 24.4365 5.12337 23.9548C4.81665 23.6648 4.86579 23.4112 5.14565 23.1444C5.40662 22.8956 5.6705 22.6482 5.91258 22.3819C6.85092 21.3518 7.07994 20.1852 6.54347 18.8984C6.00627 17.6099 4.99967 16.9522 3.60644 16.861C3.43979 16.8501 3.27091 16.8548 3.10243 16.8595C2.84456 16.8667 2.58762 16.8738 2.34104 16.8252C2.14229 16.7857 1.86098 16.5106 1.84573 16.3241C1.80578 15.839 1.81142 15.3504 1.81705 14.8617C1.81968 14.6335 1.82231 14.4054 1.82031 14.1775C1.81619 13.7479 2.0808 13.6452 2.44732 13.6314C2.60363 13.6254 2.76082 13.6233 2.91809 13.6212C3.32712 13.6158 3.73669 13.6104 4.13274 13.5365C6.64611 13.0673 7.667 10.1044 5.98569 8.19906C5.70826 7.88453 5.39935 7.59603 5.09529 7.30538C4.82125 7.04363 4.82536 6.80624 5.09916 6.54353C5.6199 6.04463 6.13676 5.54142 6.6403 5.02556C6.93275 4.7256 7.20365 4.7748 7.47672 5.02508C7.72753 5.25531 7.9609 5.50393 8.20953 5.73654C9.26891 6.72814 10.5028 6.97413 11.8375 6.42746C13.1467 5.8913 13.8253 4.85815 13.917 3.4627C13.9405 3.10613 13.9337 2.74646 13.9231 2.38894C13.9115 2.00348 14.0412 1.78901 14.477 1.80048C15.1616 1.81815 15.8477 1.82006 16.5323 1.8C16.9729 1.78687 17.0819 1.99918 17.0787 2.38631C17.0784 2.42888 17.0779 2.47153 17.0775 2.51422C17.073 2.96851 17.0685 3.42868 17.145 3.87228C17.5927 6.46758 20.5418 7.56379 22.6284 5.92259C22.8327 5.7621 23.0191 5.57844 23.2057 5.39741L23.2093 5.39397C24.001 4.62625 24.0013 4.626 24.8173 5.42082C25.1473 5.74227 25.4589 6.08451 25.8092 6.3828C26.2444 6.75322 26.2367 7.03718 25.8244 7.45799C25.3136 7.97982 24.7701 8.5401 24.4779 9.18779C23.589 11.1588 25.1451 13.501 27.352 13.6223C27.7544 13.6443 28.1586 13.6419 28.5615 13.633C28.9009 13.6254 29.1006 13.7372 29.0982 14.1054C29.0931 14.8415 29.0948 15.5773 29.1016 16.3134C29.1047 16.6484 28.9328 16.7607 28.6133 16.7669C28.11 16.7767 27.6023 16.7788 27.1051 16.8467C25.8619 17.0162 25.0008 17.6981 24.5367 18.847C24.0594 20.0283 24.1569 21.1491 24.9885 22.154C25.2679 22.4917 25.5935 22.7943 25.9147 23.0952C26.2454 23.4048 26.265 23.6854 25.9263 24.0047C25.4451 24.458 24.9718 24.9201 24.5133 25.3961C24.1535 25.7691 23.8628 25.729 23.4929 25.3815C23.0155 24.9328 22.5306 24.4484 21.9578 24.1494C19.9177 23.0847 17.3552 24.5432 17.1956 26.8152C17.185 26.964 17.1879 27.1138 17.1908 27.2636Z" transform="translate(0.37414154 3.5518463E-15)" id="Fill-1" fill="#FFFFFF" fill-rule="evenodd" stroke="#FFFFFF" stroke-width="1" />
    </g>
    <path d="M7.72414 0.00156307C3.51809 0.0818144 0.0112895 3.57407 5.05169e-05 7.83558C-0.0109441 12.1299 3.5606 15.6597 7.91447 15.6576C12.3551 15.6554 15.8352 12.1737 15.8714 7.76256C15.9039 3.77482 12.4587 -0.089051 7.72414 0.00156307ZM1.83933 7.82112C1.84251 4.46672 4.58701 1.77721 7.97946 1.80396C11.3507 1.83023 14.0497 4.51516 14.0463 7.83823C14.0429 11.1512 11.3167 13.8513 7.96163 13.8646C4.57504 13.8778 1.83591 11.1738 1.83933 7.82112Z" transform="translate(8.074127 7.699997)" id="Fill-4" fill="#FFFFFF" fill-rule="evenodd" stroke="#FFFFFF" stroke-width="1" />
  </g>
</svg>