<?xml version="1.0" encoding="utf-8"?>
<svg width="30px" height="29px" viewBox="0 0 30 29" version="1.1" xmlns:xlink="http://www.w3.org/1999/xlink" xmlns="http://www.w3.org/2000/svg">
  <desc>Created with Lunacy</desc>
  <g id="circle-login" transform="translate(0.5 0.5)">
    <path d="M1.125 2.25C0.507057 2.24192 0.00807872 1.74294 0 1.125C-2.66454e-15 0.50368 0.50368 0 1.125 0L13.515 0L13.515 0C14.1305 -5.47143e-05 14.6318 0.494545 14.64 1.11C14.6401 1.73379 14.1387 2.24179 13.515 2.25L1.14 2.25L1.125 2.25Z" transform="translate(12.49585 13.088379)" id="Path"  stroke="#82CDBF" stroke-width="1" />
    <path d="M1.17536 13.919C0.875727 13.9258 0.587117 13.806 0.380355 13.589C-0.0583252 13.1498 -0.0583252 12.4382 0.380355 11.999L5.42036 6.95901L0.335355 1.91901C0.120933 1.71008 0 1.42339 0 1.12401C0 0.824629 0.120933 0.537942 0.335355 0.32901C0.774581 -0.10967 1.48613 -0.10967 1.92536 0.32901L7.77536 6.14901C8.21404 6.58824 8.21404 7.29978 7.77536 7.73901L1.95536 13.589C1.74919 13.7978 1.46875 13.9164 1.17536 13.919L1.17536 13.919Z" transform="translate(20.740509 7.179367)" id="Path"  stroke="#82CDBF" stroke-width="1" />
    <path d="M13.8009 27.6534C10.9177 27.6505 8.10728 26.7486 5.76085 25.0734C-0.444067 20.6123 -1.85773 11.9658 2.60335 5.76085C7.06443 -0.444067 15.7109 -1.85773 21.9159 2.60335C22.3773 2.96135 22.4881 3.61297 22.1709 4.10335C21.8169 4.57156 21.1596 4.6833 20.6709 4.35835C15.98 1.00073 9.53211 1.61338 5.55755 5.79436C1.58298 9.97535 1.29729 16.446 4.88791 20.961C8.47854 25.476 14.8473 26.6545 19.8159 23.7234C20.1627 23.4895 20.6105 23.4674 20.9787 23.666C21.3468 23.8645 21.5744 24.2508 21.5696 24.6691C21.5649 25.0873 21.3284 25.4683 20.9559 25.6584C18.7968 26.962 16.3229 27.6517 13.8009 27.6534Z" transform="translate(0 3.0517578E-05)" id="Path"  stroke="#82CDBF" stroke-width="1" />
  </g>
</svg>