<?xml version="1.0" encoding="UTF-8"?>
<svg width="33px" height="31px" viewBox="0 0 33 31" version="1.1" xmlns="http://www.w3.org/2000/svg" xmlns:xlink="http://www.w3.org/1999/xlink">
    <title>spy</title>
    <g id="Page-1" stroke="none" stroke-width="1" fill-rule="evenodd">
        <g id="Inspection" transform="translate(-39.000000, -223.000000)" fill-rule="nonzero">
            <path d="M67.5281777,237.308594 C67.2830625,236.115115 66.7048535,233.501477 65.8463379,230.852582 C65.1612656,228.738455 64.4357813,227.038375 63.690252,225.79965 C62.572248,223.941918 61.3128984,223 59.9472656,223 C58.8498223,223 57.4955977,223.656777 55.810793,225.006039 C54.8512148,224.25516 52.9702793,223 51.1171875,223 C48.830584,223 46.9462324,225.504326 45.1869199,230.881393 C44.3299512,233.500574 43.7447813,236.085273 43.4876777,237.308594 L39,237.308594 L39,239.886719 L72,239.886719 L72,237.308594 L67.5281777,237.308594 Z M62.1386719,241.755859 C65.2661309,241.755859 67.8104824,244.300275 67.8104824,247.427734 C67.8104824,250.555193 65.2660664,253.099609 62.1386074,253.099609 C59.0111484,253.099609 56.4667324,250.555193 56.4667324,247.427734 C56.4667324,247.191965 56.4814277,246.959547 56.5095293,246.731189 L56.5095293,246.731189 L55.2350977,246.093941 L53.8502578,246.769475 C53.8753301,246.985521 53.8886719,247.205113 53.8886719,247.427734 C53.8886719,250.555193 51.3442559,253.099609 48.2167969,253.099609 C45.0893379,253.099609 42.5449219,250.555193 42.5449219,247.427734 C42.5449219,244.300275 45.0893379,241.755859 48.2167969,241.755859 C50.202791,241.755859 51.9534023,242.782082 52.9669277,244.331922 L52.9669277,244.331922 L55.2492773,243.218559 L57.4102617,244.299051 C58.4269453,242.767645 60.1667285,241.755859 62.1386719,241.755859 Z M48.2167969,244.333984 C46.510916,244.333984 45.1230469,245.721854 45.1230469,247.427734 C45.1230469,249.133615 46.510916,250.521484 48.2167969,250.521484 C49.9226777,250.521484 51.3105469,249.133615 51.3105469,247.427734 C51.3105469,245.721854 49.9226777,244.333984 48.2167969,244.333984 Z M62.1386719,244.333984 C60.432791,244.333984 59.0449219,245.721854 59.0449219,247.427734 C59.0449219,249.133615 60.432791,250.521484 62.1386719,250.521484 C63.8445527,250.521484 65.2324219,249.133615 65.2324219,247.427734 C65.2324219,245.721854 63.8445527,244.333984 62.1386719,244.333984 Z M59.9472656,225.578125 C60.4578633,225.578125 61.833873,226.842244 63.3870645,231.626664 C64.095791,233.809691 64.614252,236.018564 64.8924316,237.308594 L46.1257441,237.308594 C46.4118516,236.009541 46.9321816,233.837986 47.6372988,231.683061 C49.2172383,226.854039 50.6044629,225.578125 51.1171875,225.578125 C51.9258164,225.578125 53.0113359,226.16323 53.8494199,226.757875 L53.6767661,226.930545 C53.6354033,226.972488 53.6109111,226.997834 53.6053359,227.003635 L52.7105332,227.931566 L54.566332,229.721172 L55.4611348,228.79324 C55.4623626,228.791974 55.4818426,228.771839 55.5175774,228.735679 L55.6715488,228.581968 C55.9807017,228.276925 56.6003502,227.684821 57.3275039,227.094643 C59.1435996,225.620664 59.870373,225.578125 59.9472656,225.578125 Z" id="spy"></path>
        </g>
    </g>
</svg>