<?xml version="1.0" encoding="utf-8"?>
<svg width="33px" height="33px" viewBox="0 0 33 33" version="1.1" xmlns:xlink="http://www.w3.org/1999/xlink" xmlns="http://www.w3.org/2000/svg">
  <desc>Created with Lunacy</desc>
  <path d="M16.5 0C21.7598 0 26.0391 4.27924 26.0391 9.53906C26.0391 14.7989 21.7598 19.0781 16.5 19.0781C8.82344 19.0781 2.57813 25.3234 2.57813 33L0 33C0 28.5927 1.71626 24.4492 4.8327 21.3328C6.62984 19.5356 8.76891 18.2052 11.1028 17.4C8.60314 15.6783 6.96094 12.797 6.96094 9.53906C6.96094 4.27924 11.2402 0 16.5 0ZM9.53906 9.53906C9.53906 5.70075 12.6618 2.57813 16.5 2.57813C20.3382 2.57813 23.4609 5.70075 23.4609 9.53906C23.4609 13.3774 20.3382 16.5 16.5 16.5C12.6618 16.5 9.53906 13.3774 9.53906 9.53906ZM21.4002 22.6875C22.6089 21.0808 24.5212 20.1094 26.5547 20.1094C30.1086 20.1094 33 23.0007 33 26.5547C33 30.1087 30.1086 33 26.5547 33C24.5212 33 22.6089 32.0286 21.4002 30.4219L13.4622 30.4219L10.1836 27.2274L10.1836 25.9563L13.4524 22.6875L21.4002 22.6875ZM26.5547 30.4219C25.1796 30.4219 23.8962 29.6805 23.2056 28.4871L22.8333 27.8438L19.8981 27.8438L18.0324 26.0713L16.3485 27.8438L14.5105 27.8438L13.2096 26.5763L14.5202 25.2656L22.8333 25.2656L23.2057 24.6223C23.8963 23.4288 25.1796 22.6875 26.5547 22.6875C28.687 22.6875 30.4219 24.4223 30.4219 26.5547C30.4219 28.6871 28.687 30.4219 26.5547 30.4219ZM29.1328 26.5547C29.1328 27.2666 28.5557 27.8438 27.8438 27.8438C27.1318 27.8438 26.5547 27.2666 26.5547 26.5547C26.5547 25.8428 27.1318 25.2656 27.8438 25.2656C28.5557 25.2656 29.1328 25.8428 29.1328 26.5547Z" id="user" fill-rule="evenodd" stroke="none" />
</svg>