<svg xmlns="http://www.w3.org/2000/svg" viewBox="0 0 10 14" width="10" height="14">
	<defs>
		<clipPath clipPathUnits="userSpaceOnUse" id="cp1">
			<path d="M-152 -229L928 -229L928 539L-152 539Z" />
		</clipPath>
		<clipPath clipPathUnits="userSpaceOnUse" id="cp2">
			<path d="M0.15 0.5L9.9 0.5L9.9 13.25L0.15 13.25L0.15 0.5Z" />
		</clipPath>
	</defs>
	<style>
		tspan { white-space:pre }
		.shp0 { fill: #82cdbf } 
	</style>
	<g id="Customer Page (Page 2)" clip-path="url(#cp1)">
		<g id="Site Info">
			<g id="location icon">
				<g id="Group 3">
					<g id="Mask by Clip 2" clip-path="url(#cp2)">
						<path id="Fill 1" fill-rule="evenodd" class="shp0" d="M5.05 1.55C7.12 1.53 8.81 3.12 8.82 5.1C8.84 7.05 7.15 8.66 5.08 8.68C3 8.7 1.29 7.11 1.28 5.15C1.27 3.16 2.94 1.56 5.05 1.55ZM5.06 0.5C4.92 0.5 4.78 0.5 4.64 0.5C4.55 0.51 4.46 0.52 4.37 0.53C2.67 0.79 1.42 1.64 0.65 3.09C0.11 4.12 -0.01 5.2 0.41 6.32C0.66 7 0.99 7.66 1.36 8.29C2.33 9.97 3.49 11.54 4.71 13.08C4.9 13.31 5.17 13.31 5.36 13.07C6.29 11.9 7.19 10.7 8 9.44C8.59 8.52 9.15 7.58 9.56 6.57C9.89 5.77 10 4.96 9.81 4.11C9.31 1.98 7.37 0.5 5.06 0.5Z" />
					</g>
				</g>
				<path id="Fill 4" class="shp0" d="M3.15 5.38C3.15 4.36 4 3.51 5.02 3.5C6.05 3.49 6.9 4.34 6.9 5.36C6.91 6.41 6.07 7.25 5.02 7.25C4 7.25 3.16 6.41 3.15 5.38Z" />
			</g>
		</g>
	</g>
</svg>