<svg xmlns="http://www.w3.org/2000/svg" viewBox="0 0 17 16" width="17" height="16">
	<defs>
		<clipPath clipPathUnits="userSpaceOnUse" id="cp1">
			<path d="M-25 -115L515 -115L515 269L-25 269Z" />
		</clipPath>
		<clipPath clipPathUnits="userSpaceOnUse" id="cp2">
			<path d="M0.76 0.36L16.04 0.36L16.04 11.23L0.76 11.23L0.76 0.36Z" />
		</clipPath>
		<clipPath clipPathUnits="userSpaceOnUse" id="cp3">
			<path d="M0.02 12.7L12.3 12.7L12.3 15.28L0.02 15.28L0.02 12.7Z" />
		</clipPath>
	</defs>
	<style>
		<!-- tspan { white-space:pre }
		.shp0 { fill: grey }  -->

	tspan { white-space:pre }
		.shp0 { fill: #82cdbf } 


	</style>
	<g id="Customer Page (Page 2)" clip-path="url(#cp1)">
		<g id="分组 3">
			<g id="menu-equipment">
				<g id="Group 3">
					<g id="Mask by Clip 2" clip-path="url(#cp2)">
						<path id="Fill 1" fill-rule="evenodd" class="shp0" d="M13.53 10.3C13.63 9.54 13.78 7.89 13.85 6.96L14.54 7.41C14.58 7.44 14.62 7.46 14.66 7.49C15.02 7.77 15.23 8.19 15.22 8.66C15.22 9.33 14.75 9.93 14.07 10.14L13.53 10.3ZM5.55 10.42L1.57 10.42L1.57 9.43L4.04 9.43L4.04 8.63L1.57 8.63L1.57 7.44L5.55 7.44L5.55 10.42ZM6.36 6.47L6.93 6.47L6.93 8.49C6.93 8.71 7.11 8.89 7.33 8.89L10.28 8.89C10.32 9.08 10.34 9.28 10.34 9.48L10.34 10.42L6.36 10.42L6.36 6.47ZM7.74 8.08L7.74 6.51C8.72 6.65 9.55 7.25 9.99 8.08L7.74 8.08ZM7.31 5.67L5.95 5.67C5.73 5.67 5.55 5.85 5.55 6.07L5.55 6.63L3.33 6.63L9.79 1.22C9.84 1.18 9.93 1.15 10.03 1.16C10.11 1.17 10.17 1.2 10.19 1.23L13.51 5.33L13.51 5.7L10.34 2.68L10.34 2.68L10 2.36L7.74 4.65L8.32 5.21L10.02 3.49L13.09 6.41C13.08 6.45 13.07 6.49 13.07 6.54C13.01 7.4 12.82 9.58 12.71 10.3C12.68 10.55 12.77 10.81 12.96 10.97C13.1 11.08 13.26 11.14 13.43 11.14C13.5 11.14 13.57 11.13 13.65 11.11L14.3 10.91C15.32 10.6 16.03 9.68 16.04 8.67L16.04 8.67C16.04 7.95 15.72 7.29 15.15 6.85C15.1 6.81 15.04 6.77 14.99 6.74L14.32 6.3L14.32 5.05L10.82 0.72C10.66 0.52 10.4 0.39 10.11 0.36C9.79 0.33 9.49 0.42 9.27 0.6L2.07 6.63L1.16 6.63C0.94 6.63 0.76 6.82 0.76 7.04L0.76 10.82C0.76 11.05 0.94 11.23 1.16 11.23L10.74 11.23C10.97 11.23 11.15 11.05 11.15 10.82L11.15 9.48C11.15 7.38 9.43 5.67 7.31 5.67Z" />
					</g>
				</g>
				<g id="Group 6">
					<g id="Mask by Clip 5" clip-path="url(#cp3)">
						<path id="Fill 4" class="shp0" d="M10.87 12.7L10.87 13.42C11.22 13.42 11.51 13.68 11.51 13.99C11.51 14.31 11.22 14.57 10.87 14.57L1.46 14.57C1.11 14.57 0.82 14.31 0.82 13.99C0.82 13.68 1.11 13.42 1.46 13.42L1.46 12.7C0.67 12.7 0.02 13.28 0.02 13.99C0.02 14.71 0.67 15.28 1.46 15.28L10.87 15.28C11.66 15.28 12.3 14.71 12.3 13.99C12.3 13.28 11.66 12.7 10.87 12.7" />
					</g>
				</g>
			</g>
		</g>
	</g>
</svg>