<svg xmlns="http://www.w3.org/2000/svg" viewBox="0 0 16 17" width="16" height="17">
	<defs>
		<clipPath clipPathUnits="userSpaceOnUse" id="cp1">
			<path d="M-18 -79L522 -79L522 305L-18 305Z" />
		</clipPath>
	</defs>
	<style>
		tspan { white-space:pre }
		.shp0 { fill: #82cdbf } 
	</style>
	<g id="Blank Page Copy" clip-path="url(#cp1)">
		<g id="Group 19">
			<g id="Group 10 Copy 5">
				<path id="Fill 4" fill-rule="evenodd" class="shp0" d="M12.24 7.27C11.45 7.27 10.66 7.27 9.87 7.27C9.53 7.27 9.45 7.2 9.45 6.86C9.44 5.29 9.44 3.72 9.45 2.14C9.45 1.81 9.54 1.73 9.87 1.73C11.44 1.72 13.01 1.72 14.58 1.73C14.93 1.73 15.01 1.81 15.01 2.16C15.01 3.72 15.01 5.29 15.01 6.85C15.01 7.21 14.94 7.27 14.58 7.27C13.8 7.27 13.02 7.27 12.24 7.27ZM8.49 4.48C8.49 4.87 8.48 5.26 8.49 5.64C8.49 6.03 8.48 6.41 8.49 6.8C8.49 7.75 8.99 8.25 9.93 8.25C11.46 8.25 12.99 8.25 14.52 8.25C15.48 8.25 15.98 7.75 15.98 6.79C15.99 5.27 15.99 3.76 15.98 2.25C15.98 1.25 15.49 0.75 14.49 0.75C12.96 0.75 11.43 0.75 9.9 0.75C9.01 0.75 8.49 1.27 8.49 2.17C8.48 2.94 8.49 3.71 8.49 4.48L8.49 4.48Z" />
				<path id="Fill 6" fill-rule="evenodd" class="shp0" d="M15.01 12.74C15.01 13.51 15.01 14.28 15.01 15.05C15.01 15.44 14.94 15.52 14.55 15.52C13 15.53 11.45 15.53 9.9 15.52C9.54 15.52 9.45 15.44 9.45 15.08C9.44 13.52 9.44 11.97 9.45 10.42C9.45 10.05 9.53 9.96 9.89 9.96C11.45 9.96 13.01 9.96 14.57 9.96C14.94 9.96 15.01 10.05 15.01 10.42C15.01 11.19 15.01 11.96 15.01 12.74ZM8.49 12.73C8.49 13.52 8.48 14.31 8.49 15.1C8.49 15.95 8.99 16.48 9.84 16.49C11.43 16.5 13.02 16.5 14.61 16.49C15.48 16.48 15.98 15.95 15.98 15.08C15.99 13.52 15.99 11.96 15.98 10.4C15.98 9.53 15.48 9.01 14.61 9C13.03 9 11.45 9 9.87 9.01C8.97 9.02 8.49 9.51 8.49 10.41C8.48 11.19 8.49 11.96 8.49 12.73Z" />
			</g>
			<g id="Group 10 Copy 6">
				<path id="Fill 4" fill-rule="evenodd" class="shp0" d="M3.99 7.27C3.2 7.27 2.41 7.27 1.62 7.27C1.28 7.27 1.2 7.2 1.2 6.86C1.19 5.29 1.19 3.72 1.2 2.14C1.2 1.81 1.29 1.73 1.62 1.73C3.19 1.72 4.76 1.72 6.33 1.73C6.68 1.73 6.76 1.81 6.76 2.16C6.76 3.72 6.76 5.29 6.76 6.85C6.76 7.21 6.69 7.27 6.33 7.27C5.55 7.27 4.77 7.27 3.99 7.27ZM0.24 4.48C0.24 4.87 0.23 5.26 0.24 5.64C0.24 6.03 0.23 6.41 0.24 6.8C0.24 7.75 0.74 8.25 1.68 8.25C3.21 8.25 4.74 8.25 6.27 8.25C7.23 8.25 7.73 7.75 7.73 6.79C7.74 5.27 7.74 3.76 7.73 2.25C7.73 1.25 7.24 0.75 6.24 0.75C4.71 0.75 3.18 0.75 1.65 0.75C0.76 0.75 0.24 1.27 0.24 2.17C0.23 2.94 0.24 3.71 0.24 4.48L0.24 4.48Z" />
				<path id="Fill 6" fill-rule="evenodd" class="shp0" d="M6.76 12.74C6.76 13.51 6.76 14.28 6.76 15.05C6.76 15.44 6.69 15.52 6.3 15.52C4.75 15.53 3.2 15.53 1.65 15.52C1.29 15.52 1.2 15.44 1.2 15.08C1.19 13.52 1.19 11.97 1.2 10.42C1.2 10.05 1.28 9.96 1.64 9.96C3.2 9.96 4.76 9.96 6.32 9.96C6.69 9.96 6.76 10.05 6.76 10.42C6.76 11.19 6.76 11.96 6.76 12.74ZM0.24 12.73C0.24 13.52 0.23 14.31 0.24 15.1C0.24 15.95 0.74 16.48 1.59 16.49C3.18 16.5 4.77 16.5 6.36 16.49C7.23 16.48 7.73 15.95 7.73 15.08C7.74 13.52 7.74 11.96 7.73 10.4C7.73 9.53 7.23 9.01 6.36 9C4.78 9 3.2 9 1.62 9.01C0.72 9.02 0.24 9.51 0.24 10.41C0.23 11.19 0.24 11.96 0.24 12.73Z" />
			</g>
		</g>
	</g>
</svg>