<svg xmlns="http://www.w3.org/2000/svg" viewBox="0 0 47 25" width="47" height="25">
	<defs>
		<clipPath clipPathUnits="userSpaceOnUse" id="cp1">
			<path d="M-14 -8L526 -8L526 381L-14 381Z" />
		</clipPath>
		<clipPath clipPathUnits="userSpaceOnUse" id="cp2">
			<path d="M16.51 1.13L40.37 1.13L40.37 25.5L16.51 25.5L16.51 1.13Z" />
		</clipPath>
		<clipPath clipPathUnits="userSpaceOnUse" id="cp3">
			<path d="M-5 22.67L-2.49 22.67L-2.49 25.21L-5 25.21L-5 22.67Z" />
		</clipPath>
	</defs>
	<style>
		tspan { white-space:pre }
		.shp0 { fill: #80c6b2 } 
		.shp1 { fill: #000000 } 
		.shp2 { fill: #ffffff } 
	</style>
	<g id="overview " clip-path="url(#cp1)">
		<g id="Consim_Dark_v2">
			<g id="Group 3">
				<g id="Mask by Clip 2" clip-path="url(#cp2)">
					<path id="Fill 1" fill-rule="evenodd" class="shp0" d="M40.68 20.48C39.89 20.48 39.09 20.47 38.3 20.48C38.11 20.49 38 20.42 37.9 20.27C37.89 20.25 37.87 20.22 37.85 20.2C38.36 19.5 39.26 18.27 39.36 18.12C39.9 18.91 40.42 19.67 40.96 20.48L40.68 20.48ZM41.26 13.89C40.38 12.62 38.6 12.54 37.6 13.71C37.34 14.01 37.14 14.35 36.91 14.68C36.57 15.18 35.94 16.09 35.52 16.71C34.92 15.82 34.32 14.92 33.72 14.03C33.49 13.67 33.18 13.39 32.8 13.2C31.71 12.66 30.48 13.02 29.74 14.12C28.84 15.45 27.94 16.79 27.03 18.12L27.08 9.28L27.07 9.28L27.09 6.25C27.09 5.49 27.25 4.93 27.56 4.58C27.88 4.23 28.28 4.05 28.79 4.06C29.67 4.06 30.11 4.69 30.11 5.94L30.07 11.4L31.95 11.41L32.82 11.42L40.22 11.46L40.22 11.45C40.39 11.46 40.57 11.46 40.74 11.47C41.95 11.47 42.97 11.31 43.82 10.98C44.67 10.65 45.3 10.21 45.73 9.65C46.16 9.09 46.37 8.48 46.37 7.8C46.38 6.9 46.15 6.21 45.68 5.73C45.22 5.25 44.68 4.92 44.06 4.74C43.45 4.57 42.7 4.42 41.81 4.31C41.25 4.24 40.83 4.17 40.57 4.09C40.3 4.02 40.17 3.89 40.17 3.72C40.17 3.37 40.66 3.2 41.64 3.21C42.78 3.21 43.82 3.49 44.77 4.03L46.02 1.05C45.46 0.76 44.79 0.53 44.01 0.37C43.22 0.21 42.42 0.13 41.6 0.13C40.42 0.12 39.41 0.28 38.57 0.61C37.73 0.94 37.1 1.38 36.67 1.94C36.24 2.5 36.03 3.13 36.03 3.84C36.02 4.73 36.25 5.42 36.72 5.9C37.18 6.38 37.73 6.71 38.35 6.88C38.97 7.05 39.72 7.19 40.61 7.3C41.19 7.37 41.61 7.44 41.86 7.51C42.12 7.58 42.25 7.7 42.25 7.87C42.25 8.05 42.15 8.18 41.94 8.26C41.73 8.35 40.75 8.38 40.24 8.37L38.96 8.36C38.96 8.36 38.93 8.36 38.87 8.36L34.57 8.34L34.59 5.19C34.6 3.55 34.2 2.32 33.39 1.5C32.58 0.68 31.51 0.27 30.18 0.26C29.53 0.26 28.93 0.36 28.37 0.57C27.81 0.78 27.32 1.1 26.9 1.52L26.9 0.44L22.64 0.42L22.59 9.25L22.51 24.5L23.93 24.5C23.93 24.5 23.93 24.5 23.93 24.5L27.49 24.5C28.91 22.4 30.33 20.31 31.75 18.2C31.81 18.27 31.85 18.33 31.89 18.39C32.98 20.02 34.09 21.65 35.17 23.29C35.68 24.05 36.37 24.45 37.27 24.45C39.49 24.46 41.72 24.47 43.94 24.45C44.9 24.45 45.65 24.02 46.08 23.15C46.5 22.29 46.41 21.46 45.87 20.67C45.36 19.92 44.85 19.16 44.33 18.4C43.31 16.9 42.3 15.38 41.26 13.89Z" />
				</g>
			</g>
			<g id="Group 4">
				<path id="Fill 20" class="shp0" d="M2.46 15.07C2.59 15.19 2.66 15.33 2.68 15.48L2.43 15.48C2.4 15.36 2.35 15.27 2.26 15.2C2.18 15.13 2.06 15.1 1.92 15.1C1.73 15.1 1.59 15.16 1.47 15.28C1.36 15.41 1.3 15.6 1.3 15.87C1.3 16.08 1.35 16.25 1.45 16.39C1.55 16.52 1.7 16.59 1.9 16.59C2.09 16.59 2.23 16.52 2.33 16.38C2.38 16.31 2.42 16.21 2.44 16.09L2.69 16.09C2.67 16.28 2.59 16.45 2.47 16.57C2.32 16.73 2.12 16.81 1.87 16.81C1.66 16.81 1.47 16.74 1.33 16.61C1.14 16.44 1.04 16.18 1.04 15.82C1.04 15.55 1.12 15.33 1.26 15.16C1.42 14.97 1.64 14.88 1.91 14.88C2.15 14.88 2.33 14.94 2.46 15.07" />
				<path id="Fill 22" fill-rule="evenodd" class="shp0" d="M4.34 16.37C4.24 16.52 4.08 16.6 3.85 16.6C3.62 16.6 3.45 16.53 3.34 16.39C3.24 16.25 3.19 16.08 3.19 15.88C3.19 15.62 3.25 15.43 3.37 15.3C3.5 15.17 3.66 15.11 3.85 15.11C4.05 15.11 4.21 15.18 4.33 15.31C4.44 15.44 4.5 15.61 4.5 15.83C4.5 16.03 4.44 16.21 4.34 16.37ZM4.57 15.2C4.42 15 4.17 14.89 3.84 14.89C3.52 14.89 3.28 15 3.12 15.23C2.99 15.4 2.92 15.61 2.92 15.86C2.92 16.13 2.99 16.36 3.14 16.54C3.31 16.73 3.53 16.82 3.82 16.82C4.13 16.82 4.37 16.72 4.54 16.51C4.68 16.33 4.76 16.1 4.76 15.83C4.76 15.57 4.7 15.37 4.57 15.2Z" />
				<path id="Fill 24" class="shp0" d="M5.07 14.95L5.37 14.95L6.3 16.43L6.3 14.95L6.55 14.95L6.54 16.78L6.25 16.78L5.31 15.3L5.3 16.77L5.06 16.77L5.07 14.95Z" />
				<path id="Fill 26" class="shp0" d="M7.12 16.19C7.13 16.3 7.15 16.38 7.19 16.45C7.27 16.57 7.42 16.63 7.62 16.63C7.71 16.63 7.8 16.62 7.87 16.59C8.02 16.54 8.09 16.45 8.09 16.32C8.1 16.22 8.06 16.15 8 16.1C7.94 16.06 7.84 16.02 7.71 15.99L7.46 15.94C7.3 15.9 7.19 15.86 7.12 15.81C7 15.74 6.95 15.62 6.95 15.47C6.95 15.31 7.01 15.17 7.12 15.07C7.23 14.96 7.4 14.91 7.6 14.91C7.8 14.91 7.96 14.96 8.09 15.05C8.23 15.15 8.29 15.29 8.29 15.5L8.05 15.5C8.04 15.4 8.02 15.32 7.98 15.27C7.9 15.17 7.77 15.13 7.6 15.13C7.45 15.13 7.35 15.16 7.29 15.22C7.22 15.28 7.19 15.35 7.19 15.43C7.19 15.52 7.23 15.59 7.3 15.63C7.35 15.65 7.46 15.69 7.63 15.73L7.89 15.79C8.01 15.82 8.1 15.86 8.17 15.9C8.29 15.99 8.34 16.11 8.34 16.28C8.34 16.48 8.27 16.62 8.12 16.71C7.97 16.8 7.8 16.84 7.6 16.84C7.38 16.84 7.2 16.78 7.07 16.66C6.94 16.55 6.88 16.39 6.88 16.19L7.12 16.19Z" />
				<path id="Fill 28" class="shp0" d="M10.08 14.97L10.08 15.19L9.44 15.18L9.43 16.79L9.18 16.79L9.19 15.18L8.55 15.18L8.55 14.96L10.08 14.97Z" />
				<path id="Fill 30" fill-rule="evenodd" class="shp0" d="M10.59 15.81L10.6 15.18L11.2 15.19C11.29 15.19 11.35 15.2 11.4 15.23C11.5 15.27 11.55 15.36 11.55 15.49C11.54 15.61 11.51 15.7 11.44 15.74C11.37 15.79 11.28 15.81 11.17 15.81L10.59 15.81ZM10.33 16.8L10.59 16.8L10.59 16.02L11.16 16.02C11.26 16.02 11.33 16.03 11.38 16.05C11.46 16.09 11.51 16.17 11.51 16.29L11.53 16.6C11.53 16.67 11.53 16.72 11.54 16.74C11.54 16.77 11.55 16.79 11.56 16.8L11.87 16.81L11.87 16.76C11.83 16.75 11.8 16.71 11.79 16.65C11.78 16.62 11.77 16.57 11.77 16.5L11.76 16.25C11.76 16.15 11.74 16.07 11.7 16.02C11.67 15.97 11.61 15.94 11.54 15.91C11.62 15.86 11.69 15.81 11.73 15.74C11.78 15.67 11.8 15.58 11.8 15.47C11.81 15.26 11.72 15.12 11.55 15.04C11.45 15 11.34 14.98 11.2 14.97L10.34 14.97L10.33 16.8Z" />
				<path id="Fill 32" class="shp0" d="M12.48 14.98L12.48 16.11C12.48 16.24 12.5 16.35 12.55 16.44C12.63 16.57 12.76 16.64 12.94 16.64C13.16 16.64 13.3 16.57 13.38 16.43C13.43 16.35 13.45 16.25 13.45 16.11L13.45 14.99L13.71 14.99L13.71 16.01C13.71 16.24 13.67 16.41 13.61 16.53C13.49 16.75 13.28 16.86 12.96 16.86C12.64 16.86 12.42 16.75 12.31 16.52C12.25 16.4 12.22 16.23 12.22 16.01L12.22 14.98L12.48 14.98Z" />
				<path id="Fill 34" class="shp0" d="M15.43 15.13C15.56 15.25 15.63 15.39 15.65 15.54L15.4 15.54C15.37 15.43 15.32 15.33 15.23 15.26C15.15 15.19 15.03 15.16 14.89 15.16C14.7 15.16 14.56 15.22 14.44 15.35C14.33 15.47 14.27 15.67 14.27 15.93C14.27 16.14 14.32 16.31 14.42 16.45C14.52 16.58 14.67 16.65 14.87 16.65C15.06 16.65 15.2 16.58 15.3 16.44C15.35 16.37 15.39 16.27 15.41 16.15L15.66 16.15C15.64 16.34 15.56 16.51 15.44 16.64C15.29 16.79 15.09 16.87 14.84 16.87C14.63 16.87 14.44 16.8 14.3 16.67C14.11 16.5 14.01 16.24 14.01 15.88C14.01 15.61 14.09 15.39 14.23 15.22C14.39 15.03 14.61 14.94 14.88 14.94C15.12 14.94 15.3 15.01 15.43 15.13" />
				<path id="Fill 36" class="shp0" d="M17.36 15L17.36 15.22L16.73 15.22L16.72 16.83L16.46 16.83L16.47 15.22L15.84 15.21L15.84 15L17.36 15Z" />
				<path id="Fill 38" class="shp0" d="M17.66 15L17.91 15.01L17.9 16.83L17.65 16.83L17.66 15Z" />
				<path id="Fill 40" fill-rule="evenodd" class="shp0" d="M19.64 16.44C19.54 16.6 19.38 16.67 19.16 16.67C18.92 16.67 18.75 16.6 18.64 16.46C18.54 16.32 18.49 16.15 18.49 15.95C18.49 15.7 18.55 15.5 18.68 15.37C18.8 15.25 18.96 15.18 19.15 15.18C19.35 15.18 19.51 15.25 19.63 15.38C19.74 15.51 19.8 15.69 19.8 15.9C19.8 16.1 19.75 16.28 19.64 16.44ZM19.88 15.28C19.72 15.07 19.47 14.96 19.14 14.96C18.82 14.96 18.58 15.07 18.42 15.3C18.29 15.47 18.23 15.68 18.22 15.93C18.22 16.2 18.3 16.43 18.44 16.61C18.61 16.8 18.83 16.89 19.12 16.89C19.43 16.89 19.67 16.79 19.84 16.58C19.99 16.4 20.06 16.17 20.06 15.9C20.06 15.65 20 15.44 19.88 15.28Z" />
				<path id="Fill 42" class="shp0" d="M20.37 15.02L20.67 15.02L21.6 16.5L21.61 15.02L21.85 15.02L21.84 16.85L21.55 16.85L20.61 15.37L20.6 16.85L20.36 16.85L20.37 15.02Z" />
				<path id="Fill 44" class="shp0" d="M1.03 18.31L1.33 18.32L1.32 20.46L1.02 20.46L1.03 18.31Z" />
				<path id="Fill 46" class="shp0" d="M1.82 18.32L2.17 18.32L3.27 20.06L3.27 18.32L3.56 18.33L3.55 20.47L3.21 20.47L2.1 18.73L2.09 20.47L1.81 20.47L1.82 18.32Z" />
				<path id="Fill 48" class="shp0" d="M4.07 18.33L5.61 18.34L5.61 18.6L4.37 18.59L4.37 19.24L5.45 19.25L5.45 19.51L4.37 19.5L4.36 20.48L4.06 20.48L4.07 18.33Z" />
				<path id="Fill 50" fill-rule="evenodd" class="shp0" d="M7.48 20.02C7.36 20.2 7.17 20.29 6.9 20.29C6.63 20.29 6.42 20.21 6.3 20.05C6.18 19.88 6.12 19.68 6.12 19.44C6.12 19.14 6.19 18.92 6.34 18.77C6.48 18.62 6.67 18.54 6.9 18.54C7.14 18.54 7.32 18.62 7.46 18.78C7.59 18.93 7.66 19.13 7.66 19.39C7.66 19.63 7.6 19.84 7.48 20.02ZM7.75 18.65C7.56 18.41 7.27 18.28 6.88 18.28C6.51 18.28 6.23 18.41 6.03 18.68C5.89 18.88 5.81 19.13 5.81 19.42C5.81 19.74 5.89 20.01 6.06 20.22C6.26 20.44 6.53 20.55 6.87 20.55C7.23 20.55 7.51 20.43 7.71 20.18C7.88 19.97 7.96 19.7 7.96 19.38C7.97 19.09 7.89 18.84 7.75 18.65Z" />
				<path id="Fill 52" fill-rule="evenodd" class="shp0" d="M8.66 19.33L8.66 18.6L9.37 18.6C9.47 18.6 9.55 18.62 9.61 18.65C9.72 18.7 9.78 18.81 9.78 18.96C9.78 19.1 9.74 19.2 9.65 19.26C9.58 19.31 9.47 19.34 9.33 19.34L8.66 19.33ZM8.35 20.5L8.65 20.5L8.66 19.58L9.32 19.58C9.44 19.58 9.52 19.59 9.58 19.62C9.68 19.67 9.73 19.76 9.74 19.9L9.75 20.26C9.76 20.35 9.76 20.4 9.77 20.43C9.77 20.46 9.78 20.48 9.79 20.5L10.16 20.5L10.16 20.46C10.11 20.44 10.08 20.39 10.06 20.32C10.05 20.28 10.04 20.22 10.04 20.14L10.03 19.85C10.03 19.73 10 19.64 9.96 19.58C9.92 19.53 9.85 19.48 9.77 19.45C9.86 19.4 9.94 19.33 10 19.25C10.05 19.17 10.08 19.06 10.08 18.94C10.08 18.69 9.98 18.52 9.78 18.43C9.67 18.38 9.53 18.35 9.37 18.35L8.36 18.35L8.35 20.5Z" />
				<path id="Fill 54" class="shp0" d="M10.55 18.36L10.97 18.36L11.6 20.18L12.24 18.37L12.67 18.37L12.66 20.52L12.37 20.51L12.38 19.25C12.38 19.2 12.38 19.13 12.38 19.03C12.38 18.93 12.39 18.82 12.39 18.7L11.75 20.51L11.45 20.51L10.82 18.7L10.82 18.76C10.82 18.81 10.82 18.89 10.82 19C10.83 19.11 10.83 19.19 10.83 19.24L10.82 20.51L10.53 20.51L10.55 18.36Z" />
				<path id="Fill 56" fill-rule="evenodd" class="shp0" d="M13.56 19.64L13.92 18.69L14.25 19.64L13.56 19.64ZM12.92 20.52L13.23 20.52L13.47 19.88L14.34 19.88L14.57 20.53L14.89 20.53L14.1 18.38L13.76 18.37L12.92 20.52Z" />
				<path id="Fill 58" class="shp0" d="M16.56 18.39L16.56 18.64L15.81 18.64L15.8 20.53L15.5 20.53L15.51 18.64L14.76 18.63L14.76 18.38L16.56 18.39Z" />
				<path id="Fill 60" class="shp0" d="M16.9 18.39L17.2 18.39L17.19 20.54L16.89 20.54L16.9 18.39Z" />
				<path id="Fill 62" fill-rule="evenodd" class="shp0" d="M19.24 20.08C19.12 20.26 18.93 20.35 18.66 20.35C18.39 20.35 18.19 20.26 18.06 20.1C17.94 19.94 17.88 19.74 17.88 19.5C17.88 19.2 17.95 18.98 18.1 18.82C18.25 18.67 18.43 18.6 18.66 18.6C18.9 18.6 19.08 18.68 19.22 18.83C19.35 18.99 19.42 19.19 19.42 19.44C19.42 19.68 19.36 19.89 19.24 20.08ZM19.51 18.71C19.32 18.46 19.03 18.34 18.64 18.34C18.27 18.34 17.99 18.47 17.8 18.73C17.65 18.94 17.57 19.19 17.57 19.48C17.57 19.8 17.65 20.06 17.83 20.28C18.02 20.5 18.29 20.61 18.63 20.61C18.99 20.61 19.27 20.49 19.47 20.24C19.64 20.03 19.72 19.76 19.73 19.44C19.73 19.14 19.66 18.9 19.51 18.71Z" />
				<path id="Fill 64" class="shp0" d="M20.09 18.4L20.44 18.41L21.53 20.15L21.54 18.41L21.83 18.41L21.82 20.56L21.48 20.56L20.37 18.82L20.36 20.55L20.08 20.55L20.09 18.4Z" />
				<g id="Group 68">
					<path id="Clip 67" class="shp1" d="M1 21.67L3.51 21.67L3.51 24.21L1 24.21L1 21.67Z" />
					<g id="Mask by Clip 67" clip-path="url(#cp3)">
						<path id="Fill 66" class="shp0" d="M1.01 21.67L1.52 21.67L2.25 23.81L3.01 21.68L3.51 21.68L3.5 24.21L3.16 24.21L3.17 22.71C3.17 22.66 3.17 22.58 3.17 22.46C3.18 22.34 3.18 22.21 3.18 22.07L2.43 24.2L2.08 24.2L1.34 22.07L1.34 22.14C1.34 22.2 1.34 22.3 1.34 22.43C1.34 22.55 1.34 22.65 1.34 22.71L1.34 24.2L1 24.2L1.01 21.67Z" />
					</g>
				</g>
				<path id="Fill 69" fill-rule="evenodd" class="shp0" d="M5.87 23.66C5.73 23.88 5.5 23.99 5.19 23.98C4.86 23.98 4.63 23.89 4.48 23.69C4.34 23.5 4.27 23.26 4.27 22.98C4.27 22.63 4.36 22.37 4.53 22.19C4.7 22.01 4.92 21.92 5.19 21.92C5.46 21.93 5.68 22.02 5.84 22.2C6 22.38 6.08 22.62 6.08 22.92C6.08 23.2 6.01 23.45 5.87 23.66ZM6.18 22.05C5.97 21.77 5.63 21.62 5.17 21.62C4.73 21.62 4.39 21.77 4.17 22.08C3.99 22.33 3.9 22.62 3.9 22.96C3.9 23.34 4 23.65 4.2 23.9C4.43 24.16 4.75 24.29 5.15 24.29C5.57 24.29 5.91 24.15 6.14 23.85C6.34 23.6 6.44 23.29 6.44 22.91C6.44 22.56 6.36 22.28 6.18 22.05Z" />
				<path id="Fill 71" fill-rule="evenodd" class="shp0" d="M7.23 23.93L7.24 21.99L7.85 21.99C8.13 22 8.33 22.08 8.45 22.26C8.58 22.43 8.64 22.67 8.64 22.99C8.63 23.07 8.63 23.16 8.61 23.25C8.58 23.41 8.53 23.54 8.46 23.64C8.37 23.77 8.26 23.86 8.13 23.9C8.05 23.92 7.96 23.94 7.84 23.94L7.23 23.93ZM6.87 24.22L7.9 24.23C8.35 24.23 8.66 24.04 8.84 23.66C8.94 23.44 9 23.2 9 22.93C9 22.58 8.91 22.3 8.74 22.07C8.55 21.83 8.27 21.7 7.92 21.7L6.88 21.7L6.87 24.22Z" />
				<path id="Fill 73" class="shp0" d="M9.52 21.71L11.41 21.72L11.41 22.03L9.86 22.02L9.86 22.79L11.28 22.79L11.28 23.09L9.86 23.08L9.85 23.94L11.42 23.94L11.42 24.24L9.51 24.24L9.52 21.71Z" />
				<path id="Fill 75" class="shp0" d="M11.9 21.72L12.26 21.72L12.25 23.95L13.55 23.95L13.55 24.25L11.89 24.25L11.9 21.72Z" />
				<path id="Fill 77" class="shp0" d="M13.92 21.73L14.27 21.73L14.26 23.96L15.57 23.96L15.57 24.26L13.91 24.26L13.92 21.73Z" />
				<path id="Fill 79" class="shp0" d="M16.02 21.74L16.38 21.74L16.36 24.27L16.01 24.27L16.02 21.74Z" />
				<path id="Fill 81" class="shp0" d="M16.95 21.74L17.36 21.75L18.65 23.79L18.66 21.75L19 21.75L18.98 24.28L18.59 24.28L17.28 22.23L17.27 24.27L16.94 24.27L16.95 21.74Z" />
				<path id="Fill 83" class="shp0" d="M21.3 21.84C21.55 21.97 21.71 22.2 21.76 22.53L21.41 22.53C21.37 22.35 21.29 22.21 21.16 22.13C21.03 22.04 20.86 22 20.66 22C20.43 22 20.23 22.08 20.07 22.26C19.91 22.43 19.82 22.69 19.82 23.04C19.82 23.34 19.89 23.59 20.02 23.77C20.15 23.96 20.37 24.06 20.67 24.06C20.9 24.06 21.09 24 21.24 23.86C21.39 23.73 21.47 23.52 21.48 23.22L20.66 23.22L20.66 22.94L21.8 22.94L21.8 24.29L21.57 24.29L21.49 23.97C21.37 24.09 21.27 24.18 21.17 24.23C21.02 24.31 20.83 24.36 20.59 24.35C20.29 24.35 20.03 24.26 19.81 24.06C19.58 23.82 19.46 23.48 19.46 23.06C19.46 22.63 19.58 22.3 19.81 22.05C20.04 21.81 20.32 21.69 20.68 21.7C20.92 21.7 21.12 21.74 21.3 21.84" />
			</g>
			<path id="Fill 4" class="shp2" d="M25.29 10.16C26.48 10.17 27.44 11.19 27.44 12.44C27.43 13.7 26.46 14.71 25.27 14.7C24.07 14.69 23.11 13.67 23.12 12.42C23.13 11.17 24.1 10.16 25.29 10.16Z" />
			<path id="Fill 6" class="shp0" d="M20.19 1.49C18.85 0.4 17.34 0.03 15.67 0.42C14.56 0.68 13.61 1.25 12.82 2.07C12.39 2.51 12.01 2.99 11.62 3.46C11.04 4.17 10.47 4.88 9.88 5.58C9.35 6.22 8.8 6.84 8.26 7.47C8.07 7.7 7.86 7.89 7.59 8.01C7.01 8.27 6.42 8.23 5.85 7.97C4.54 7.36 4.12 5.64 4.98 4.45C5.19 4.15 5.46 3.91 5.8 3.78C6.15 3.65 6.5 3.61 6.86 3.66C7.42 3.74 7.9 3.98 8.24 4.45C8.42 4.69 8.57 4.97 8.72 5.23C8.86 5.45 8.8 5.35 8.94 5.59L11.46 2.6C11.1 2.29 11.02 2.24 10.67 1.92C9.98 1.31 9.21 0.85 8.35 0.53C7.55 0.24 6.73 0.11 5.88 0.22C5.06 0.32 4.29 0.62 3.6 1.08C2.04 2.14 1.29 3.67 1.19 5.55C1.14 6.41 1.31 7.24 1.61 8.04C2.04 9.2 2.74 10.14 3.8 10.78C4.54 11.23 5.36 11.46 6.21 11.54C7.34 11.66 8.4 11.45 9.4 10.91C10.31 10.42 11.05 9.73 11.7 8.93C12.5 7.92 13.35 6.99 14.15 5.98C14.56 5.47 15.03 4.92 15.46 4.42C15.92 3.89 16.38 3.6 17.09 3.72C18.37 3.92 19.2 5.18 18.91 6.47C18.77 7.14 18.41 7.66 17.78 7.94C17.41 8.1 17.02 8.16 16.62 8.15C16.11 8.15 15.7 7.95 15.37 7.56C15.17 7.33 15.01 7.08 14.87 6.81C14.7 6.51 14.78 6.66 14.6 6.34C14.55 6.41 14.32 6.67 14.27 6.74L12.28 9.1C12.28 9.1 12.31 9.17 12.34 9.24C12.4 9.37 12.37 9.3 12.37 9.3C12.83 10.13 13.47 10.64 14.3 11.04C15.32 11.53 16.39 11.7 17.5 11.58C18.23 11.5 18.91 11.29 19.54 10.91C20.76 10.18 21.6 9.13 22.07 7.77C22.43 6.75 22.52 5.7 22.22 4.64C21.87 3.38 21.19 2.31 20.19 1.49Z" />
		</g>
	</g>
</svg>